<?xml version="1.0" encoding="UTF-8" standalone="no"?>
<!DOCTYPE svg PUBLIC "-//W3C//DTD SVG 1.1//EN" "http://www.w3.org/Graphics/SVG/1.1/DTD/svg11.dtd">
<!-- Created with Vectornator (http://vectornator.io/) -->
<svg height="100%" stroke-miterlimit="10" style="fill-rule:nonzero;clip-rule:evenodd;stroke-linecap:round;stroke-linejoin:round;" version="1.1" viewBox="540 0 1800 1800" width="100%" xml:space="preserve" xmlns="http://www.w3.org/2000/svg" xmlns:vectornator="http://vectornator.io" xmlns:xlink="http://www.w3.org/1999/xlink">
<defs/>
<clipPath id="ArtboardFrame">
<rect height="1800" width="1800" x="540" y="0"/>
</clipPath>
<g clip-path="url(#ArtboardFrame)" id="Layer" vectornator:layerName="Layer">
<g opacity="1" vectornator:layerName="Group 2">
<path d="M540 900C540 402.944 942.944 0 1440 0C1937.06 0 2340 402.944 2340 900C2340 1397.06 1937.06 1800 1440 1800C942.944 1800 540 1397.06 540 900Z" fill="#000000" fill-rule="nonzero" opacity="1" stroke="none" vectornator:layerName="Oval 1"/>
<g opacity="1" vectornator:layerName="Group 1">
<path d="M1446.21 690.081C1447.17 687.072 1451.43 687.072 1452.39 690.081L1485.43 793.429C1486.04 795.341 1488.22 796.245 1490 795.325L1586.44 745.605C1589.25 744.158 1592.26 747.168 1590.81 749.976L1541.09 846.412C1540.17 848.196 1541.07 850.379 1542.99 850.99L1646.33 884.024C1649.34 884.985 1649.34 889.243 1646.33 890.204L1542.99 923.238C1541.07 923.849 1540.17 926.032 1541.09 927.815L1590.81 1024.25C1592.26 1027.06 1589.25 1030.07 1586.44 1028.62L1490 978.903C1488.22 977.983 1486.04 978.887 1485.43 980.799L1452.39 1084.15C1451.43 1087.16 1447.17 1087.16 1446.21 1084.15L1413.18 980.799C1412.57 978.887 1410.38 977.983 1408.6 978.903L1312.16 1028.62C1309.36 1030.07 1306.34 1027.06 1307.79 1024.25L1357.51 927.815C1358.43 926.032 1357.53 923.849 1355.62 923.238L1252.27 890.204C1249.26 889.243 1249.26 884.985 1252.27 884.024L1355.62 850.99C1357.53 850.379 1358.43 848.196 1357.51 846.412L1307.79 749.976C1306.34 747.168 1309.36 744.158 1312.16 745.605L1408.6 795.325C1410.38 796.245 1412.57 795.341 1413.18 793.429L1446.21 690.081Z" fill="#8651d4" fill-rule="nonzero" opacity="1" stroke="none" vectornator:layerName="Star 2"/>
<path d="M1009.01 1340.03C964.65 1340.03 924.084 1328.84 887.315 1306.46C850.945 1284.08 822.07 1254 800.688 1216.24C779.305 1178.47 768.614 1136.4 768.614 1090.04L769.813 706.962C769.813 661.4 780.205 620.234 800.987 583.465C821.77 546.296 850.446 516.421 887.015 493.84C923.585 471.259 964.251 459.968 1009.01 459.968C1054.57 459.968 1095.14 470.959 1130.71 492.941C1166.68 514.922 1195.36 544.598 1216.74 581.966C1238.12 619.335 1248.81 661 1248.81 706.962L1248.81 763.314C1248.81 766.512 1247.21 768.11 1244.02 768.11L1106.13 768.11C1102.93 768.11 1101.34 766.512 1101.34 763.314L1101.34 706.962C1101.34 679.784 1092.54 656.404 1074.96 636.82C1057.37 617.237 1035.39 607.445 1009.01 607.445C979.838 607.445 957.456 617.437 941.869 637.42C926.282 657.403 918.489 680.584 918.489 706.962L918.489 1090.04C918.489 1120.02 927.282 1144.5 944.867 1163.48C962.452 1182.46 983.834 1191.96 1009.01 1191.96C1035.39 1191.96 1057.37 1181.46 1074.96 1160.48C1092.54 1139.5 1101.34 1116.02 1101.34 1090.04L1101.34 1033.09C1101.34 1029.89 1102.93 1028.29 1106.13 1028.29L1245.22 1028.29C1248.41 1028.29 1250.01 1029.89 1250.01 1033.09L1250.01 1090.04C1250.01 1136 1239.22 1177.97 1217.64 1215.94C1195.66 1253.5 1166.68 1283.58 1130.71 1306.16C1094.74 1328.74 1054.18 1340.03 1009.01 1340.03Z" fill="#ffffff" fill-rule="nonzero" opacity="1" stroke="none" vectornator:layerName="Curve 1"/>
<path d="M1780.96 459.968C1777.76 459.968 1775.8 461.618 1775 464.815L1622.74 1308.3C1622.74 1312.3 1624.29 1314.26 1627.49 1314.26L1764.2 1314.26C1767.8 1314.26 1769.86 1312.3 1770.26 1308.3L1783.38 1218.34L1863.15 742.376L1868.5 696.739L1875.77 742.376L1950.69 1218.34L1963.81 1308.3C1964.21 1312.3 1966.48 1314.26 1970.48 1314.26L2106.48 1314.26C2110.08 1314.26 2111.73 1312.3 2111.33 1308.3L1965.02 464.815C1964.22 461.618 1962.26 459.968 1959.07 459.968L1780.96 459.968Z" fill="#ffffff" fill-rule="nonzero" opacity="1" stroke="none" vectornator:layerName="Curve 5"/>
</g>
</g>
</g>
</svg>
