<?xml version="1.0" encoding="UTF-8" standalone="no"?>
<!DOCTYPE svg PUBLIC "-//W3C//DTD SVG 1.1//EN" "http://www.w3.org/Graphics/SVG/1.1/DTD/svg11.dtd">
<!-- Created with Vectornator (http://vectornator.io/) -->
<svg height="100%" stroke-miterlimit="10" style="fill-rule:nonzero;clip-rule:evenodd;stroke-linecap:round;stroke-linejoin:round;" version="1.1" viewBox="585.391 650.764 1709.22 473.291" width="100%" xml:space="preserve" xmlns="http://www.w3.org/2000/svg" xmlns:vectornator="http://vectornator.io" xmlns:xlink="http://www.w3.org/1999/xlink">
<defs/>
<clipPath id="ArtboardFrame">
<rect height="473.291" width="1709.22" x="585.391" y="650.764"/>
</clipPath>
<g clip-path="url(#ArtboardFrame)" id="Layer" vectornator:layerName="Layer">
<g opacity="1" vectornator:layerName="Group 2">
<g opacity="1" vectornator:layerName="Group 1">
<path d="M2231.97 814.672C2232.27 813.741 2233.59 813.741 2233.88 814.672L2244.11 846.658C2244.3 847.25 2244.97 847.53 2245.53 847.245L2275.37 831.857C2276.24 831.409 2277.17 832.341 2276.73 833.21L2261.34 863.057C2261.05 863.609 2261.33 864.285 2261.92 864.474L2293.91 874.698C2294.84 874.995 2294.84 876.313 2293.91 876.611L2261.92 886.835C2261.33 887.024 2261.05 887.699 2261.34 888.252L2276.73 918.099C2277.17 918.968 2276.24 919.9 2275.37 919.452L2245.53 904.063C2244.97 903.779 2244.3 904.058 2244.11 904.65L2233.88 936.637C2233.59 937.568 2232.27 937.568 2231.97 936.637L2221.75 904.65C2221.56 904.058 2220.88 903.779 2220.33 904.063L2190.48 919.452C2189.61 919.9 2188.68 918.968 2189.13 918.099L2204.52 888.252C2204.8 887.699 2204.52 887.024 2203.93 886.835L2171.95 876.611C2171.01 876.313 2171.01 874.995 2171.95 874.698L2203.93 864.474C2204.52 864.285 2204.8 863.609 2204.52 863.057L2189.13 833.21C2188.68 832.341 2189.61 831.409 2190.48 831.857L2220.33 847.245C2220.88 847.53 2221.56 847.25 2221.75 846.658L2231.97 814.672Z" fill="#8651d4" fill-rule="nonzero" opacity="1" stroke="none" vectornator:layerName="Star 2"/>
<path d="M659.795 923.147C646.065 923.147 633.509 919.684 622.129 912.757C610.873 905.83 601.936 896.521 595.318 884.832C588.7 873.142 585.391 860.123 585.391 845.774L585.762 727.21C585.762 713.108 588.978 700.367 595.411 688.987C601.843 677.483 610.718 668.237 622.037 661.248C633.355 654.259 645.941 650.764 659.795 650.764C673.897 650.764 686.452 654.166 697.461 660.97C708.594 667.773 717.469 676.957 724.087 688.523C730.705 700.089 734.014 712.985 734.014 727.21L734.014 744.651C734.014 745.641 733.519 746.136 732.53 746.136L689.854 746.136C688.864 746.136 688.37 745.641 688.37 744.651L688.37 727.21C688.37 718.798 685.648 711.562 680.205 705.501C674.763 699.44 667.959 696.409 659.795 696.409C650.765 696.409 643.838 699.501 639.014 705.686C634.19 711.871 631.778 719.046 631.778 727.21L631.778 845.774C631.778 855.052 634.499 862.628 639.942 868.504C645.384 874.379 652.002 877.317 659.795 877.317C667.959 877.317 674.763 874.07 680.205 867.576C685.648 861.082 688.37 853.815 688.37 845.774L688.37 828.147C688.37 827.158 688.864 826.663 689.854 826.663L732.901 826.663C733.89 826.663 734.385 827.158 734.385 828.147L734.385 845.774C734.385 859.999 731.045 872.988 724.366 884.739C717.562 896.367 708.594 905.675 697.461 912.664C686.328 919.653 673.773 923.147 659.795 923.147Z" fill="#ffffff" fill-rule="nonzero" opacity="1" stroke="none" vectornator:layerName="Curve 1"/>
<path d="M931.162 919.436L808.33 919.436C807.341 919.436 806.846 918.818 806.846 917.581L807.217 656.516C807.217 655.527 807.712 655.032 808.702 655.032L930.791 655.032C931.781 655.032 932.276 655.651 932.276 656.888L932.276 699.378C932.276 700.367 931.781 700.862 930.791 700.862L852.862 700.862L852.862 760.237L930.791 760.237C931.781 760.237 932.276 760.732 932.276 761.721L932.647 804.768C932.647 805.758 932.152 806.253 931.162 806.253L852.862 806.253L852.862 872.679L931.162 872.679C932.152 872.679 932.647 873.297 932.647 874.534L932.647 917.952C932.647 918.942 932.152 919.436 931.162 919.436Z" fill="#ffffff" fill-rule="nonzero" opacity="1" stroke="none" vectornator:layerName="Curve 2"/>
<path d="M1052.79 919.436L1014.76 919.436C1012.78 919.436 1011.79 918.57 1011.79 916.839L1011.42 658.001C1011.42 656.022 1012.41 655.032 1014.39 655.032L1048.71 655.032L1112.91 804.768L1111.06 658.001C1111.06 656.022 1112.17 655.032 1114.39 655.032L1152.06 655.032C1153.55 655.032 1154.29 656.022 1154.29 658.001L1154.66 917.21C1154.66 918.694 1154.04 919.436 1152.8 919.436L1119.4 919.436L1053.54 779.534L1056.32 916.468C1056.32 918.447 1055.14 919.436 1052.79 919.436Z" fill="#ffffff" fill-rule="nonzero" opacity="1" stroke="none" vectornator:layerName="Curve 3"/>
<path d="M1313.77 919.436L1270.91 919.436C1269.8 919.436 1269.24 918.818 1269.24 917.581L1269.24 700.862L1219.88 700.862C1218.65 700.862 1218.03 700.244 1218.03 699.007L1218.4 656.516C1218.4 655.527 1218.89 655.032 1219.88 655.032L1364.24 655.032C1365.6 655.032 1366.28 655.527 1366.28 656.516L1366.28 699.007C1366.28 700.244 1365.78 700.862 1364.8 700.862L1314.88 700.862L1315.25 917.581C1315.25 918.818 1314.76 919.436 1313.77 919.436Z" fill="#ffffff" fill-rule="nonzero" opacity="1" stroke="none" vectornator:layerName="Curve 4"/>
<path d="M1443 655.03C1442.01 655.03 1441.4 655.541 1441.15 656.53L1394.03 917.593C1394.03 918.83 1394.51 919.436 1395.5 919.436L1437.81 919.436C1438.92 919.436 1439.56 918.83 1439.68 917.593L1443.75 889.749L1468.43 742.436L1470.09 728.311L1472.34 742.436L1495.53 889.749L1499.59 917.593C1499.71 918.83 1500.42 919.436 1501.65 919.436L1543.75 919.436C1544.86 919.436 1545.37 918.83 1545.25 917.593L1499.96 656.53C1499.72 655.541 1499.11 655.03 1498.12 655.03L1443 655.03Z" fill="#ffffff" fill-rule="nonzero" opacity="1" stroke="none" vectornator:layerName="Curve 5"/>
<path d="M1676.34 923.147C1662.98 923.147 1650.61 919.684 1639.23 912.757C1627.85 905.83 1618.79 896.521 1612.05 884.832C1605.3 873.142 1601.93 860.371 1601.93 846.516L1602.68 656.516C1602.68 655.527 1603.17 655.032 1604.16 655.032L1646.84 655.032C1647.83 655.032 1648.32 655.527 1648.32 656.516L1648.32 846.516C1648.32 855.052 1651.04 862.319 1656.48 868.318C1661.93 874.318 1668.55 877.317 1676.34 877.317C1684.5 877.317 1691.31 874.318 1696.75 868.318C1702.19 862.319 1704.91 855.052 1704.91 846.516L1704.91 656.516C1704.91 655.527 1705.41 655.032 1706.4 655.032L1749.07 655.032C1750.06 655.032 1750.56 655.527 1750.56 656.516L1751.3 846.516C1751.3 860.494 1747.96 873.359 1741.28 885.11C1734.48 896.738 1725.45 905.984 1714.19 912.849C1702.93 919.715 1690.32 923.147 1676.34 923.147Z" fill="#ffffff" fill-rule="nonzero" opacity="1" stroke="none" vectornator:layerName="Curve 6"/>
<path d="M1870.7 919.436L1827.66 919.436C1826.67 919.436 1826.17 918.818 1826.17 917.581L1826.91 656.516C1826.91 655.527 1827.41 655.032 1828.4 655.032L1905.22 655.032C1918.95 655.032 1931.56 658.372 1943.07 665.052C1954.57 671.731 1963.76 680.699 1970.62 691.956C1977.49 703.212 1980.92 715.953 1980.92 730.179C1980.92 739.456 1979.5 747.867 1976.65 755.413C1973.81 762.958 1970.5 769.329 1966.72 774.524C1962.95 779.72 1959.52 783.554 1956.43 786.028C1970.16 801.243 1977.02 819.117 1977.02 839.651L1977.39 917.581C1977.39 918.818 1976.77 919.436 1975.54 919.436L1932.49 919.436C1931.5 919.436 1931.01 919.065 1931.01 918.323L1931.01 839.651C1931.01 830.498 1927.79 822.581 1921.36 815.901C1914.93 809.221 1907.01 805.882 1897.61 805.882L1872.56 805.882L1872.19 917.581C1872.19 918.818 1871.69 919.436 1870.7 919.436ZM1905.22 700.491L1872.56 700.491L1872.56 760.237L1905.22 760.237C1913.01 760.237 1919.97 757.33 1926.09 751.516C1932.21 745.703 1935.27 738.59 1935.27 730.179C1935.27 722.138 1932.31 715.18 1926.37 709.305C1920.43 703.429 1913.38 700.491 1905.22 700.491Z" fill="#ffffff" fill-rule="nonzero" opacity="1" stroke="none" vectornator:layerName="Curve 7"/>
<path d="M2099.21 919.436L2056.16 919.436C2054.93 919.436 2054.31 918.818 2054.31 917.581L2054.68 656.516C2054.68 655.527 2055.17 655.032 2056.16 655.032L2098.84 655.032C2099.83 655.032 2100.32 655.527 2100.32 656.516L2100.69 917.581C2100.69 918.818 2100.2 919.436 2099.21 919.436Z" fill="#ffffff" fill-rule="nonzero" opacity="1" stroke="none" vectornator:layerName="Curve 8"/>
</g>
<text fill="#8651d4" font-family="AvenirNext-MediumItalic" font-size="128" opacity="1" stroke="none" text-anchor="start" transform="matrix(1 0 0 1 585.391 965.335)" vectornator:layerName="Text 1" vectornator:width="595.384" x="0" y="0">
<tspan textLength="592.384" x="0" y="128">Marketing</tspan>
</text>
</g>
</g>
</svg>
