<?xml version="1.0" encoding="UTF-8" standalone="no"?>
<!DOCTYPE svg PUBLIC "-//W3C//DTD SVG 1.1//EN" "http://www.w3.org/Graphics/SVG/1.1/DTD/svg11.dtd">
<!-- Created with Vectornator (http://vectornator.io/) -->
<svg height="100%" stroke-miterlimit="10" style="fill-rule:nonzero;clip-rule:evenodd;stroke-linecap:round;stroke-linejoin:round;" version="1.1" viewBox="650.323 763.809 1709.22 286.571" width="100%" xml:space="preserve" xmlns="http://www.w3.org/2000/svg" xmlns:vectornator="http://vectornator.io" xmlns:xlink="http://www.w3.org/1999/xlink">
<defs/>
<clipPath id="ArtboardFrame">
<rect height="286.571" width="1709.22" x="650.323" y="763.809"/>
</clipPath>
<g clip-path="url(#ArtboardFrame)" id="Layer" vectornator:layerName="Layer">
<g opacity="1" vectornator:layerName="Group 1">
<path d="M2296.9 927.716C2297.2 926.785 2298.52 926.785 2298.82 927.716L2309.04 959.703C2309.23 960.294 2309.9 960.574 2310.46 960.289L2340.3 944.901C2341.17 944.453 2342.11 945.385 2341.66 946.254L2326.27 976.101C2325.98 976.653 2326.26 977.329 2326.86 977.518L2358.84 987.742C2359.77 988.04 2359.77 989.357 2358.84 989.655L2326.86 999.879C2326.26 1000.07 2325.98 1000.74 2326.27 1001.3L2341.66 1031.14C2342.11 1032.01 2341.17 1032.94 2340.3 1032.5L2310.46 1017.11C2309.9 1016.82 2309.23 1017.1 2309.04 1017.69L2298.82 1049.68C2298.52 1050.61 2297.2 1050.61 2296.9 1049.68L2286.68 1017.69C2286.49 1017.1 2285.81 1016.82 2285.26 1017.11L2255.42 1032.5C2254.55 1032.94 2253.61 1032.01 2254.06 1031.14L2269.45 1001.3C2269.74 1000.74 2269.46 1000.07 2268.86 999.879L2236.88 989.655C2235.95 989.357 2235.95 988.04 2236.88 987.742L2268.86 977.518C2269.46 977.329 2269.74 976.653 2269.45 976.101L2254.06 946.254C2253.61 945.385 2254.55 944.453 2255.42 944.901L2285.26 960.289C2285.81 960.574 2286.49 960.294 2286.68 959.703L2296.9 927.716Z" fill="#ffffff" fill-rule="nonzero" opacity="1" stroke="none" vectornator:layerName="Star 2"/>
<path d="M724.727 1036.19C710.996 1036.19 698.441 1032.73 687.061 1025.8C675.804 1018.87 666.867 1009.57 660.249 997.876C653.632 986.187 650.323 973.167 650.323 958.818L650.694 840.254C650.694 826.152 653.91 813.411 660.342 802.031C666.774 790.527 675.65 781.281 686.968 774.292C698.286 767.303 710.873 763.809 724.727 763.809C738.828 763.809 751.384 767.21 762.393 774.014C773.526 780.817 782.401 790.002 789.019 801.567C795.637 813.133 798.946 826.029 798.946 840.254L798.946 857.695C798.946 858.685 798.451 859.18 797.461 859.18L754.785 859.18C753.796 859.18 753.301 858.685 753.301 857.695L753.301 840.254C753.301 831.842 750.58 824.606 745.137 818.545C739.694 812.484 732.891 809.453 724.727 809.453C715.697 809.453 708.77 812.546 703.946 818.73C699.121 824.915 696.709 832.09 696.709 840.254L696.709 958.818C696.709 968.096 699.431 975.672 704.873 981.548C710.316 987.424 716.934 990.361 724.727 990.361C732.891 990.361 739.694 987.114 745.137 980.62C750.58 974.126 753.301 966.859 753.301 958.818L753.301 941.191C753.301 940.202 753.796 939.707 754.785 939.707L797.832 939.707C798.822 939.707 799.317 940.202 799.317 941.191L799.317 958.818C799.317 973.044 795.977 986.032 789.297 997.783C782.494 1009.41 773.526 1018.72 762.393 1025.71C751.26 1032.7 738.705 1036.19 724.727 1036.19Z" fill="#ffffff" fill-rule="nonzero" opacity="1" stroke="none" vectornator:layerName="Curve 1"/>
<path d="M996.094 1032.48L873.262 1032.48C872.272 1032.48 871.778 1031.86 871.778 1030.62L872.149 769.561C872.149 768.571 872.644 768.076 873.633 768.076L995.723 768.076C996.713 768.076 997.207 768.695 997.207 769.932L997.207 812.422C997.207 813.411 996.713 813.906 995.723 813.906L917.793 813.906L917.793 873.281L995.723 873.281C996.713 873.281 997.207 873.776 997.207 874.766L997.578 917.812C997.578 918.802 997.084 919.297 996.094 919.297L917.793 919.297L917.793 985.723L996.094 985.723C997.084 985.723 997.578 986.341 997.578 987.578L997.578 1031C997.578 1031.99 997.084 1032.48 996.094 1032.48Z" fill="#ffffff" fill-rule="nonzero" opacity="1" stroke="none" vectornator:layerName="Curve 2"/>
<path d="M1117.72 1032.48L1079.69 1032.48C1077.71 1032.48 1076.72 1031.61 1076.72 1029.88L1076.35 771.045C1076.35 769.066 1077.34 768.076 1079.32 768.076L1113.64 768.076L1177.84 917.812L1175.99 771.045C1175.99 769.066 1177.1 768.076 1179.33 768.076L1216.99 768.076C1218.48 768.076 1219.22 769.066 1219.22 771.045L1219.59 1030.25C1219.59 1031.74 1218.97 1032.48 1217.73 1032.48L1184.34 1032.48L1118.47 892.578L1121.25 1029.51C1121.25 1031.49 1120.08 1032.48 1117.72 1032.48Z" fill="#ffffff" fill-rule="nonzero" opacity="1" stroke="none" vectornator:layerName="Curve 3"/>
<path d="M1378.7 1032.48L1335.84 1032.48C1334.73 1032.48 1334.17 1031.86 1334.17 1030.62L1334.17 813.906L1284.81 813.906C1283.58 813.906 1282.96 813.288 1282.96 812.051L1283.33 769.561C1283.33 768.571 1283.83 768.076 1284.81 768.076L1429.17 768.076C1430.53 768.076 1431.21 768.571 1431.21 769.561L1431.21 812.051C1431.21 813.288 1430.72 813.906 1429.73 813.906L1379.81 813.906L1380.19 1030.62C1380.19 1031.86 1379.69 1032.48 1378.7 1032.48Z" fill="#ffffff" fill-rule="nonzero" opacity="1" stroke="none" vectornator:layerName="Curve 4"/>
<path d="M1507.93 768.074C1506.94 768.074 1506.33 768.585 1506.08 769.574L1458.96 1030.64C1458.96 1031.87 1459.44 1032.48 1460.43 1032.48L1502.74 1032.48C1503.85 1032.48 1504.49 1031.87 1504.62 1030.64L1508.68 1002.79L1533.37 855.48L1535.02 841.355L1537.27 855.48L1560.46 1002.79L1564.52 1030.64C1564.65 1031.87 1565.35 1032.48 1566.58 1032.48L1608.68 1032.48C1609.79 1032.48 1610.3 1031.87 1610.18 1030.64L1564.9 769.574C1564.65 768.585 1564.04 768.074 1563.05 768.074L1507.93 768.074Z" fill="#ffffff" fill-rule="nonzero" opacity="1" stroke="none" vectornator:layerName="Curve 5"/>
<path d="M1741.27 1036.19C1727.91 1036.19 1715.54 1032.73 1704.16 1025.8C1692.78 1018.87 1683.72 1009.57 1676.98 997.876C1670.24 986.187 1666.87 973.415 1666.87 959.561L1667.61 769.561C1667.61 768.571 1668.1 768.076 1669.09 768.076L1711.77 768.076C1712.76 768.076 1713.25 768.571 1713.25 769.561L1713.25 959.561C1713.25 968.096 1715.97 975.363 1721.42 981.362C1726.86 987.362 1733.48 990.361 1741.27 990.361C1749.43 990.361 1756.24 987.362 1761.68 981.362C1767.12 975.363 1769.84 968.096 1769.84 959.561L1769.84 769.561C1769.84 768.571 1770.34 768.076 1771.33 768.076L1814 768.076C1814.99 768.076 1815.49 768.571 1815.49 769.561L1816.23 959.561C1816.23 973.538 1812.89 986.403 1806.21 998.154C1799.41 1009.78 1790.38 1019.03 1779.12 1025.89C1767.86 1032.76 1755.25 1036.19 1741.27 1036.19Z" fill="#ffffff" fill-rule="nonzero" opacity="1" stroke="none" vectornator:layerName="Curve 6"/>
<path d="M1935.64 1032.48L1892.59 1032.48C1891.6 1032.48 1891.1 1031.86 1891.1 1030.62L1891.85 769.561C1891.85 768.571 1892.34 768.076 1893.33 768.076L1970.15 768.076C1983.88 768.076 1996.49 771.416 2008 778.096C2019.5 784.775 2028.69 793.743 2035.55 805C2042.42 816.257 2045.85 828.997 2045.85 843.223C2045.85 852.5 2044.43 860.911 2041.58 868.457C2038.74 876.003 2035.43 882.373 2031.66 887.568C2027.88 892.764 2024.45 896.598 2021.36 899.072C2035.09 914.287 2041.95 932.161 2041.95 952.695L2042.32 1030.62C2042.32 1031.86 2041.71 1032.48 2040.47 1032.48L1997.42 1032.48C1996.43 1032.48 1995.94 1032.11 1995.94 1031.37L1995.94 952.695C1995.94 943.542 1992.72 935.625 1986.29 928.945C1979.86 922.266 1971.94 918.926 1962.54 918.926L1937.49 918.926L1937.12 1030.62C1937.12 1031.86 1936.62 1032.48 1935.64 1032.48ZM1970.15 813.535L1937.49 813.535L1937.49 873.281L1970.15 873.281C1977.94 873.281 1984.9 870.374 1991.02 864.561C1997.14 858.747 2000.21 851.634 2000.21 843.223C2000.21 835.182 1997.24 828.224 1991.3 822.349C1985.36 816.473 1978.31 813.535 1970.15 813.535Z" fill="#ffffff" fill-rule="nonzero" opacity="1" stroke="none" vectornator:layerName="Curve 7"/>
<path d="M2164.14 1032.48L2121.09 1032.48C2119.86 1032.48 2119.24 1031.86 2119.24 1030.62L2119.61 769.561C2119.61 768.571 2120.1 768.076 2121.09 768.076L2163.77 768.076C2164.76 768.076 2165.25 768.571 2165.25 769.561L2165.63 1030.62C2165.63 1031.86 2165.13 1032.48 2164.14 1032.48Z" fill="#ffffff" fill-rule="nonzero" opacity="1" stroke="none" vectornator:layerName="Curve 8"/>
</g>
</g>
</svg>
